<svg 
  xmlns="http://www.w3.org/2000/svg" 
  version="1.1" 
  xmlns:xlink="http://www.w3.org/1999/xlink" 
  xmlns:svgjs="http://svgjs.dev/svgjs" width="1440" height="560" 
  preserveAspectRatio="none" viewBox="0 0 1440 560"
  >
  <g mask="url(&quot;#SvgjsMask1011&quot;)" fill="none">
    <rect width="1440" height="560" x="0" y="0" fill="rgba(42, 50, 60, 1)"></rect>
    <path d="M115.39 288.33L180.35 325.83L180.35 400.83L115.39 438.33L50.44 400.83L50.44 325.83zM180.35 400.83L245.3 438.33L245.3 513.33L180.35 550.83L115.39 513.33L115.39 438.33zM375.21 288.33L440.16 325.83L440.16 400.83L375.21 438.33L310.25 400.83L310.25 325.83zM440.16 -49.17L505.12 -11.67L505.12 63.33L440.16 100.83L375.21 63.33L375.21 -11.67zM440.16 175.83L505.12 213.33L505.12 288.33L440.16 325.83L375.21 288.33L375.21 213.33zM570.07 400.83L635.02 438.33L635.02 513.33L570.07 550.83L505.12 513.33L505.12 438.33zM699.98 -49.17L764.93 -11.67L764.93 63.33L699.98 100.83L635.02 63.33L635.02 -11.67zM764.93 63.33L829.88 100.83L829.88 175.83L764.93 213.33L699.98 175.83L699.98 100.83zM699.98 400.83L764.93 438.33L764.93 513.33L699.98 550.83L635.02 513.33L635.02 438.33zM959.79 -49.17L1024.75 -11.67L1024.75 63.33L959.79 100.83L894.84 63.33L894.84 -11.67zM1089.7 400.83L1154.65 438.33L1154.65 513.33L1089.7 550.83L1024.75 513.33L1024.75 438.33zM1219.61 400.83L1284.56 438.33L1284.56 513.33L1219.61 550.83L1154.65 513.33L1154.65 438.33zM1414.47 63.33L1479.42 100.83L1479.42 175.83L1414.47 213.33L1349.52 175.83L1349.52 100.83zM1349.52 175.83L1414.47 213.33L1414.47 288.33L1349.52 325.83L1284.56 288.33L1284.56 213.33zM1479.42 400.83L1544.38 438.33L1544.38 513.33L1479.42 550.83L1414.47 513.33L1414.47 438.33z" stroke="rgba(116,128, 225, 0.6)" stroke-width="2"></path>
    <path d="M107.89 288.33 a7.5 7.5 0 1 0 15 0 a7.5 7.5 0 1 0 -15 0zM172.85 325.83 a7.5 7.5 0 1 0 15 0 a7.5 7.5 0 1 0 -15 0zM172.85 400.83 a7.5 7.5 0 1 0 15 0 a7.5 7.5 0 1 0 -15 0zM107.89 438.33 a7.5 7.5 0 1 0 15 0 a7.5 7.5 0 1 0 -15 0zM42.94 400.83 a7.5 7.5 0 1 0 15 0 a7.5 7.5 0 1 0 -15 0zM42.94 325.83 a7.5 7.5 0 1 0 15 0 a7.5 7.5 0 1 0 -15 0zM237.8 438.33 a7.5 7.5 0 1 0 15 0 a7.5 7.5 0 1 0 -15 0zM237.8 513.33 a7.5 7.5 0 1 0 15 0 a7.5 7.5 0 1 0 -15 0zM172.85 550.83 a7.5 7.5 0 1 0 15 0 a7.5 7.5 0 1 0 -15 0zM107.89 513.33 a7.5 7.5 0 1 0 15 0 a7.5 7.5 0 1 0 -15 0zM367.71 288.33 a7.5 7.5 0 1 0 15 0 a7.5 7.5 0 1 0 -15 0zM432.66 325.83 a7.5 7.5 0 1 0 15 0 a7.5 7.5 0 1 0 -15 0zM432.66 400.83 a7.5 7.5 0 1 0 15 0 a7.5 7.5 0 1 0 -15 0zM367.71 438.33 a7.5 7.5 0 1 0 15 0 a7.5 7.5 0 1 0 -15 0zM302.75 400.83 a7.5 7.5 0 1 0 15 0 a7.5 7.5 0 1 0 -15 0zM302.75 325.83 a7.5 7.5 0 1 0 15 0 a7.5 7.5 0 1 0 -15 0zM432.66 -49.17 a7.5 7.5 0 1 0 15 0 a7.5 7.5 0 1 0 -15 0zM497.62 -11.67 a7.5 7.5 0 1 0 15 0 a7.5 7.5 0 1 0 -15 0zM497.62 63.33 a7.5 7.5 0 1 0 15 0 a7.5 7.5 0 1 0 -15 0zM432.66 100.83 a7.5 7.5 0 1 0 15 0 a7.5 7.5 0 1 0 -15 0zM367.71 63.33 a7.5 7.5 0 1 0 15 0 a7.5 7.5 0 1 0 -15 0zM367.71 -11.67 a7.5 7.5 0 1 0 15 0 a7.5 7.5 0 1 0 -15 0zM432.66 175.83 a7.5 7.5 0 1 0 15 0 a7.5 7.5 0 1 0 -15 0zM497.62 213.33 a7.5 7.5 0 1 0 15 0 a7.5 7.5 0 1 0 -15 0zM497.62 288.33 a7.5 7.5 0 1 0 15 0 a7.5 7.5 0 1 0 -15 0zM367.71 213.33 a7.5 7.5 0 1 0 15 0 a7.5 7.5 0 1 0 -15 0zM562.57 400.83 a7.5 7.5 0 1 0 15 0 a7.5 7.5 0 1 0 -15 0zM627.52 438.33 a7.5 7.5 0 1 0 15 0 a7.5 7.5 0 1 0 -15 0zM627.52 513.33 a7.5 7.5 0 1 0 15 0 a7.5 7.5 0 1 0 -15 0zM562.57 550.83 a7.5 7.5 0 1 0 15 0 a7.5 7.5 0 1 0 -15 0zM497.62 513.33 a7.5 7.5 0 1 0 15 0 a7.5 7.5 0 1 0 -15 0zM497.62 438.33 a7.5 7.5 0 1 0 15 0 a7.5 7.5 0 1 0 -15 0zM692.48 -49.17 a7.5 7.5 0 1 0 15 0 a7.5 7.5 0 1 0 -15 0zM757.43 -11.67 a7.5 7.5 0 1 0 15 0 a7.5 7.5 0 1 0 -15 0zM757.43 63.33 a7.5 7.5 0 1 0 15 0 a7.5 7.5 0 1 0 -15 0zM692.48 100.83 a7.5 7.5 0 1 0 15 0 a7.5 7.5 0 1 0 -15 0zM627.52 63.33 a7.5 7.5 0 1 0 15 0 a7.5 7.5 0 1 0 -15 0zM627.52 -11.67 a7.5 7.5 0 1 0 15 0 a7.5 7.5 0 1 0 -15 0zM822.38 100.83 a7.5 7.5 0 1 0 15 0 a7.5 7.5 0 1 0 -15 0zM822.38 175.83 a7.5 7.5 0 1 0 15 0 a7.5 7.5 0 1 0 -15 0zM757.43 213.33 a7.5 7.5 0 1 0 15 0 a7.5 7.5 0 1 0 -15 0zM692.48 175.83 a7.5 7.5 0 1 0 15 0 a7.5 7.5 0 1 0 -15 0zM692.48 400.83 a7.5 7.5 0 1 0 15 0 a7.5 7.5 0 1 0 -15 0zM757.43 438.33 a7.5 7.5 0 1 0 15 0 a7.5 7.5 0 1 0 -15 0zM757.43 513.33 a7.5 7.5 0 1 0 15 0 a7.5 7.5 0 1 0 -15 0zM692.48 550.83 a7.5 7.5 0 1 0 15 0 a7.5 7.5 0 1 0 -15 0zM952.29 -49.17 a7.5 7.5 0 1 0 15 0 a7.5 7.5 0 1 0 -15 0zM1017.25 -11.67 a7.5 7.5 0 1 0 15 0 a7.5 7.5 0 1 0 -15 0zM1017.25 63.33 a7.5 7.5 0 1 0 15 0 a7.5 7.5 0 1 0 -15 0zM952.29 100.83 a7.5 7.5 0 1 0 15 0 a7.5 7.5 0 1 0 -15 0zM887.34 63.33 a7.5 7.5 0 1 0 15 0 a7.5 7.5 0 1 0 -15 0zM887.34 -11.67 a7.5 7.5 0 1 0 15 0 a7.5 7.5 0 1 0 -15 0zM1082.2 400.83 a7.5 7.5 0 1 0 15 0 a7.5 7.5 0 1 0 -15 0zM1147.15 438.33 a7.5 7.5 0 1 0 15 0 a7.5 7.5 0 1 0 -15 0zM1147.15 513.33 a7.5 7.5 0 1 0 15 0 a7.5 7.5 0 1 0 -15 0zM1082.2 550.83 a7.5 7.5 0 1 0 15 0 a7.5 7.5 0 1 0 -15 0zM1017.25 513.33 a7.5 7.5 0 1 0 15 0 a7.5 7.5 0 1 0 -15 0zM1017.25 438.33 a7.5 7.5 0 1 0 15 0 a7.5 7.5 0 1 0 -15 0zM1212.11 400.83 a7.5 7.5 0 1 0 15 0 a7.5 7.5 0 1 0 -15 0zM1277.06 438.33 a7.5 7.5 0 1 0 15 0 a7.5 7.5 0 1 0 -15 0zM1277.06 513.33 a7.5 7.5 0 1 0 15 0 a7.5 7.5 0 1 0 -15 0zM1212.11 550.83 a7.5 7.5 0 1 0 15 0 a7.5 7.5 0 1 0 -15 0zM1406.97 63.33 a7.5 7.5 0 1 0 15 0 a7.5 7.5 0 1 0 -15 0zM1471.92 100.83 a7.5 7.5 0 1 0 15 0 a7.5 7.5 0 1 0 -15 0zM1471.92 175.83 a7.5 7.5 0 1 0 15 0 a7.5 7.5 0 1 0 -15 0zM1406.97 213.33 a7.5 7.5 0 1 0 15 0 a7.5 7.5 0 1 0 -15 0zM1342.02 175.83 a7.5 7.5 0 1 0 15 0 a7.5 7.5 0 1 0 -15 0zM1342.02 100.83 a7.5 7.5 0 1 0 15 0 a7.5 7.5 0 1 0 -15 0zM1406.97 288.33 a7.5 7.5 0 1 0 15 0 a7.5 7.5 0 1 0 -15 0zM1342.02 325.83 a7.5 7.5 0 1 0 15 0 a7.5 7.5 0 1 0 -15 0zM1277.06 288.33 a7.5 7.5 0 1 0 15 0 a7.5 7.5 0 1 0 -15 0zM1277.06 213.33 a7.5 7.5 0 1 0 15 0 a7.5 7.5 0 1 0 -15 0zM1471.92 400.83 a7.5 7.5 0 1 0 15 0 a7.5 7.5 0 1 0 -15 0zM1536.88 438.33 a7.5 7.5 0 1 0 15 0 a7.5 7.5 0 1 0 -15 0zM1536.88 513.33 a7.5 7.5 0 1 0 15 0 a7.5 7.5 0 1 0 -15 0zM1471.92 550.83 a7.5 7.5 0 1 0 15 0 a7.5 7.5 0 1 0 -15 0zM1406.97 513.33 a7.5 7.5 0 1 0 15 0 a7.5 7.5 0 1 0 -15 0zM1406.97 438.33 a7.5 7.5 0 1 0 15 0 a7.5 7.5 0 1 0 -15 0z" fill="rgba(116, 128, 225, 0)"></path>
    <path d="M142.29 335.74L211.58 375.74L211.58 455.74L142.29 495.74L73.01 455.74L73.01 375.74zM280.86 95.74L350.15 135.74L350.15 215.74L280.86 255.74L211.58 215.74L211.58 135.74zM211.58 215.74L280.86 255.74L280.86 335.74L211.58 375.74L142.29 335.74L142.29 255.74zM280.86 335.74L350.15 375.74L350.15 455.74L280.86 495.74L211.58 455.74L211.58 375.74zM419.43 95.74L488.71 135.74L488.71 215.74L419.43 255.74L350.15 215.74L350.15 135.74zM488.71 455.74L558 495.74L558 575.74L488.71 615.74L419.43 575.74L419.43 495.74zM558 575.74L627.28 615.74L627.28 695.74L558 735.74L488.71 695.74L488.71 615.74zM627.28 -24.26L696.57 15.74L696.57 95.74L627.28 135.74L558 95.74L558 15.74zM627.28 215.74L696.57 255.74L696.57 335.74L627.28 375.74L558 335.74L558 255.74zM696.57 575.74L765.85 615.74L765.85 695.74L696.57 735.74L627.28 695.74L627.28 615.74zM904.42 215.74L973.7 255.74L973.7 335.74L904.42 375.74L835.13 335.74L835.13 255.74zM973.7 335.74L1042.99 375.74L1042.99 455.74L973.7 495.74L904.42 455.74L904.42 375.74zM1112.27 335.74L1181.55 375.74L1181.55 455.74L1112.27 495.74L1042.99 455.74L1042.99 375.74zM1250.84 335.74L1320.12 375.74L1320.12 455.74L1250.84 495.74L1181.55 455.74L1181.55 375.74zM1181.55 455.74L1250.84 495.74L1250.84 575.74L1181.55 615.74L1112.27 575.74L1112.27 495.74zM1389.41 95.74L1458.69 135.74L1458.69 215.74L1389.41 255.74L1320.12 215.74L1320.12 135.74zM1389.41 335.74L1458.69 375.74L1458.69 455.74L1389.41 495.74L1320.12 455.74L1320.12 375.74zM1320.12 455.74L1389.41 495.74L1389.41 575.74L1320.12 615.74L1250.84 575.74L1250.84 495.74zM1458.69 215.74L1527.97 255.74L1527.97 335.74L1458.69 375.74L1389.41 335.74L1389.41 255.74z" stroke="rgba(0, 182, 225, 0.7)" stroke-width="2"></path>
  </g>
  <defs>
    <mask id="SvgjsMask1011">
      <rect width="1440" height="560" fill="#ffffff"></rect>
      </mask>
    </defs>
  </svg>
